<svg xmlns="http://www.w3.org/2000/svg" version="1.1" width="600px" height="600px" viewBox="0 0 200 200" style="overflow:hidden!important;"><defs id="SvgjsDefs3215"><radialGradient id="SvgjsRadialGradient3281" cx="100" cy="114" r="41" gradientUnits="userSpaceOnUse" class="svga-on-canvas-facehighlight-gradient-single-0"><stop id="SvgjsStop3282" stop-opacity="0.5" stop-color="#ffe4d6" offset="0" ></stop><stop id="SvgjsStop3283" stop-opacity="0" stop-color="#f0c7b1" offset="0.9" ></stop></radialGradient><radialGradient id="SvgjsRadialGradient3285" cx="100" cy="54" r="37" gradientUnits="userSpaceOnUse" class="svga-on-canvas-facehighlight-gradient-single-1"><stop id="SvgjsStop3286" stop-opacity="0.5" stop-color="#ffe4d6" offset="0" ></stop><stop id="SvgjsStop3287" stop-opacity="0" stop-color="#f0c7b1" offset="0.9" ></stop></radialGradient><radialGradient id="SvgjsRadialGradient3370" cx="-568.659" cy="-521.042" r="59.751" gradientTransform="matrix(0.096 -0.0248 0.0245 0.0961 141.2814 119.9893)" gradientUnits="userSpaceOnUse" class="svga-on-canvas-eyesiris-gradient-left-1"><stop id="SvgjsStop3371" stop-opacity="1" stop-color="#ffffff" offset="0" ></stop><stop id="SvgjsStop3372" stop-opacity="0" stop-color="#ffffff" offset="1" ></stop></radialGradient><radialGradient id="SvgjsRadialGradient3374" cx="-582.838" cy="-519.099" r="59.745" gradientTransform="matrix(0.0991 8.856319e-004 -0.0011 0.0991 131.1134 135.9855)" gradientUnits="userSpaceOnUse" class="svga-on-canvas-eyesiris-gradient-left-2"><stop id="SvgjsStop3375" stop-opacity="1" stop-color="#ffffff" offset="0" ></stop><stop id="SvgjsStop3376" stop-opacity="0" stop-color="#ffffff" offset="1" ></stop></radialGradient><linearGradient id="SvgjsLinearGradient3380" x1="122.67" y1="88.268" x2="123.606" y2="87.152" gradientTransform="matrix(1 0 0 1 -52 0)" gradientUnits="userSpaceOnUse" class="svga-on-canvas-eyesiris-gradient-left-5"><stop id="SvgjsStop3381" stop-opacity="1" stop-color="#ffffff" offset="0" ></stop><stop id="SvgjsStop3382" stop-opacity="0" stop-color="#ffffff" offset="1" ></stop></linearGradient><linearGradient id="SvgjsLinearGradient3384" x1="127.212" y1="82.296" x2="126.463" y2="83.189" gradientTransform="matrix(1 0 0 1 -52 0)" gradientUnits="userSpaceOnUse" class="svga-on-canvas-eyesiris-gradient-left-6"><stop id="SvgjsStop3385" stop-opacity="1" stop-color="#ffffff" offset="0" ></stop><stop id="SvgjsStop3386" stop-opacity="0" stop-color="#ffffff" offset="1" ></stop></linearGradient><linearGradient id="SvgjsLinearGradient3388" x1="129.636" y1="79.822" x2="127.91" y2="81.879" gradientTransform="matrix(1 0 0 1 -52 0)" gradientUnits="userSpaceOnUse" class="svga-on-canvas-eyesiris-gradient-left-7"><stop id="SvgjsStop3389" stop-opacity="1" stop-color="#ffffff" offset="0" ></stop><stop id="SvgjsStop3390" stop-opacity="0" stop-color="#ffffff" offset="1" ></stop></linearGradient><radialGradient id="SvgjsRadialGradient3393" cx="-568.654" cy="-521.042" r="59.752" gradientTransform="matrix(0.096 -0.0248 0.0245 0.0961 193.2804 119.9894)" gradientUnits="userSpaceOnUse" class="svga-on-canvas-eyesiris-gradient-right-1"><stop id="SvgjsStop3394" stop-opacity="1" stop-color="#ffffff" offset="0" ></stop><stop id="SvgjsStop3395" stop-opacity="0" stop-color="#ffffff" offset="1" ></stop></radialGradient><radialGradient id="SvgjsRadialGradient3397" cx="-582.833" cy="-519.102" r="59.747" gradientTransform="matrix(0.0991 8.856319e-004 -0.0011 0.0991 183.1126 135.9856)" gradientUnits="userSpaceOnUse" class="svga-on-canvas-eyesiris-gradient-right-2"><stop id="SvgjsStop3398" stop-opacity="1" stop-color="#ffffff" offset="0" ></stop><stop id="SvgjsStop3399" stop-opacity="0" stop-color="#ffffff" offset="1" ></stop></radialGradient><linearGradient id="SvgjsLinearGradient3403" x1="122.67" y1="88.268" x2="123.606" y2="87.152" gradientUnits="userSpaceOnUse" class="svga-on-canvas-eyesiris-gradient-right-5"><stop id="SvgjsStop3404" stop-opacity="1" stop-color="#ffffff" offset="0" ></stop><stop id="SvgjsStop3405" stop-opacity="0" stop-color="#ffffff" offset="1" ></stop></linearGradient><linearGradient id="SvgjsLinearGradient3407" x1="127.212" y1="82.296" x2="126.463" y2="83.189" gradientUnits="userSpaceOnUse" class="svga-on-canvas-eyesiris-gradient-right-6"><stop id="SvgjsStop3408" stop-opacity="1" stop-color="#ffffff" offset="0" ></stop><stop id="SvgjsStop3409" stop-opacity="0" stop-color="#ffffff" offset="1" ></stop></linearGradient><linearGradient id="SvgjsLinearGradient3411" x1="129.636" y1="79.822" x2="127.91" y2="81.879" gradientUnits="userSpaceOnUse" class="svga-on-canvas-eyesiris-gradient-right-7"><stop id="SvgjsStop3412" stop-opacity="1" stop-color="#ffffff" offset="0" ></stop><stop id="SvgjsStop3413" stop-opacity="0" stop-color="#ffffff" offset="1" ></stop></linearGradient><linearGradient id="SvgjsLinearGradient3523" x1="100" y1="171" x2="100" y2="131" gradientUnits="userSpaceOnUse" class="svga-on-canvas-chinshadow-gradient-single-0"><stop id="SvgjsStop3524" stop-opacity="0.8" stop-color="#e1ac8f" offset="0" ></stop><stop id="SvgjsStop3525" stop-opacity="1" stop-color="#c27b55" offset="0.7" ></stop></linearGradient><linearGradient id="SvgjsLinearGradient3591" x1="100" y1="142" x2="100" y2="139" gradientUnits="userSpaceOnUse" class="svga-on-canvas-mouth-gradient-single-0"><stop id="SvgjsStop3592" stop-opacity="1" stop-color="#e8b9a0" offset="0.1" ></stop><stop id="SvgjsStop3593" stop-opacity="1" stop-color="#e1ac8f" offset="1" ></stop></linearGradient><radialGradient id="SvgjsRadialGradient4196" cx="129.041" cy="83.945" r="15.117" gradientTransform="matrix(-0.9945 0.1042 0.1042 0.9945 192.8281 -12.4633)" gradientUnits="userSpaceOnUse" class="svga-on-canvas-eyesback-gradient-left-0"><stop id="SvgjsStop4197" stop-opacity="1" stop-color="#ffffff" offset="0" ></stop><stop id="SvgjsStop4198" stop-opacity="1" stop-color="#fcfdfd" offset="0.315" ></stop><stop id="SvgjsStop4199" stop-opacity="1" stop-color="#f4f7f8" offset="0.504" ></stop><stop id="SvgjsStop4200" stop-opacity="1" stop-color="#e5ecef" offset="0.66" ></stop><stop id="SvgjsStop4201" stop-opacity="1" stop-color="#d8e2e7" offset="0.76" ></stop></radialGradient><radialGradient id="SvgjsRadialGradient4203" cx="128.643" cy="83.986" r="15.116" gradientTransform="matrix(0.9945 0.1042 -0.1042 0.9945 7.1738 -12.4633)" gradientUnits="userSpaceOnUse" class="svga-on-canvas-eyesback-gradient-right-0"><stop id="SvgjsStop4204" stop-opacity="1" stop-color="#ffffff" offset="0" ></stop><stop id="SvgjsStop4205" stop-opacity="1" stop-color="#fcfdfd" offset="0.316" ></stop><stop id="SvgjsStop4206" stop-opacity="1" stop-color="#f4f7f8" offset="0.505" ></stop><stop id="SvgjsStop4207" stop-opacity="1" stop-color="#e5ecef" offset="0.661" ></stop><stop id="SvgjsStop4208" stop-opacity="1" stop-color="#d8e2e7" offset="0.76" ></stop></radialGradient><radialGradient id="SvgjsRadialGradient4210" cx="129.041" cy="83.945" r="15.117" gradientTransform="matrix(-0.9945 0.1042 0.1042 0.9945 192.8281 -12.4633)" gradientUnits="userSpaceOnUse" class="svga-on-canvas-eyesfront-gradient-left-0"><stop id="SvgjsStop4211" stop-opacity="1" stop-color="#ffffff" offset="0" ></stop><stop id="SvgjsStop4212" stop-opacity="1" stop-color="#fcfdfd" offset="0.316" ></stop><stop id="SvgjsStop4213" stop-opacity="1" stop-color="#f4f7f8" offset="0.505" ></stop><stop id="SvgjsStop4214" stop-opacity="1" stop-color="#e5ecef" offset="0.661" ></stop><stop id="SvgjsStop4215" stop-opacity="1" stop-color="#d8e2e7" offset="0.76" ></stop></radialGradient><radialGradient id="SvgjsRadialGradient4219" cx="121.986" cy="82.496" fx="133.239" fy="82.527" r="16.003" gradientTransform="matrix(0.9998 0.0208 0.0166 -0.7998 -45.3195 145.9395)" gradientUnits="userSpaceOnUse" class="svga-on-canvas-eyesfront-gradient-left-3"><stop id="SvgjsStop4220" stop-opacity="1" stop-color="#e1ac8f" offset="0" ></stop><stop id="SvgjsStop4221" stop-opacity="0.3" stop-color="#e1ac8f" offset="0.7" ></stop><stop id="SvgjsStop4222" stop-opacity="0" stop-color="#f0c7b1" offset="1" ></stop></radialGradient><radialGradient id="SvgjsRadialGradient4224" cx="68.931" cy="105.995" r="29.524" gradientTransform="matrix(1.0336 0 0 1.0336 -1.6796 1.3127)" gradientUnits="userSpaceOnUse" class="svga-on-canvas-eyesfront-gradient-left-4"><stop id="SvgjsStop4225" stop-opacity="0" stop-color="#000000" offset="0.95" ></stop><stop id="SvgjsStop4226" stop-opacity="0.2" stop-color="#000000" offset="1" ></stop></radialGradient><radialGradient id="SvgjsRadialGradient4230" cx="128.643" cy="83.986" r="15.116" gradientTransform="matrix(0.9945 0.1042 -0.1042 0.9945 7.1738 -12.4633)" gradientUnits="userSpaceOnUse" class="svga-on-canvas-eyesfront-gradient-right-0"><stop id="SvgjsStop4231" stop-opacity="1" stop-color="#ffffff" offset="0" ></stop><stop id="SvgjsStop4232" stop-opacity="1" stop-color="#fcfdfd" offset="0.316" ></stop><stop id="SvgjsStop4233" stop-opacity="1" stop-color="#f4f7f8" offset="0.505" ></stop><stop id="SvgjsStop4234" stop-opacity="1" stop-color="#e5ecef" offset="0.661" ></stop><stop id="SvgjsStop4235" stop-opacity="1" stop-color="#d8e2e7" offset="0.76" ></stop></radialGradient><radialGradient id="SvgjsRadialGradient4239" cx="121.587" cy="82.496" fx="132.839" fy="82.527" r="16.003" gradientTransform="matrix(-0.9998 0.0208 -0.0166 -0.7998 244.5208 145.9478)" gradientUnits="userSpaceOnUse" class="svga-on-canvas-eyesfront-gradient-right-3"><stop id="SvgjsStop4240" stop-opacity="1" stop-color="#e1ac8f" offset="0" ></stop><stop id="SvgjsStop4241" stop-opacity="0.3" stop-color="#e1ac8f" offset="0.7" ></stop><stop id="SvgjsStop4242" stop-opacity="0" stop-color="#f0c7b1" offset="1" ></stop></radialGradient><radialGradient id="SvgjsRadialGradient4244" cx="69.316" cy="105.995" r="29.524" gradientTransform="matrix(-1.0336 0 0 1.0336 201.6796 1.3127)" gradientUnits="userSpaceOnUse" class="svga-on-canvas-eyesfront-gradient-right-4"><stop id="SvgjsStop4245" stop-opacity="0" stop-color="#000000" offset="0.95" ></stop><stop id="SvgjsStop4246" stop-opacity="0.2" stop-color="#000000" offset="1" ></stop></radialGradient></defs><g id="svga-group-wrapper"><g id="svga-group-backs-single"><path id="SvgjsPath3268" d="M225 225H-25V-25h250V225z" fill="#ecf0f1" stroke-width="none" opacity="1"></path></g><g id="svga-group-humanwrap-move" transform="matrix(1,0,0,1,0,6)"><g id="svga-group-humanwrap" transform="matrix(0.8499995000000001,0,0,0.8499995000000001,15.00012474447368,17.22577491593026)"><g id="svga-group-hair-back-move" transform="matrix(1,0,0,1,0,0)"><g id="svga-group-hair-back" transform="matrix(1,0,0,1,0,0)"><path id="SvgjsPath4331" d="M146.969 104.885c-46.51-1.001-92.949 0.02-93.95 0.02 -2.675 4.014-4.176 11.498-3.28 15.61 0.934 4.212 4.441 8.009 5.66 16.46 0.07 0.83-0.04 1.71 0.3 2.76 0.35 1.001 2.022 3.206 3.34 3.44 0.129-0.016 0.381-0.046 0.5-0.061 0.523 0.935 1.48 1.218 2.11 0.91 1.516 2.89 3.099-0.453 5.14 1.32 3.383 2.757 3.832 0.049 6.58-0.931 2.146-0.04 5.034 3.43 7.71 0.761 5.499-5.354 8.082 4.5 12.97 1.869 1-0.506 3.922-2.7 5.96-1.42 3.889-2.455 5.717 5.161 11.56-0.05 5.623-5.015 6.653 1.352 10.72 0.51 1.852-0.43 2.478-1.777 4.35-1.67 2.654 1.003 3.25 3.637 6.57 0.931 2.014-1.75 3.577 1.521 5.141-1.32 0.62 0.311 1.589 0.028 2.109-0.91 0.12 0.015 0.38 0.045 0.51 0.061 1.243-0.235 2.975-2.42 3.341-3.44 0.488-1.559-0.315-5.524 3.609-13.46C151.914 118.111 151.265 110.834 146.969 104.885z" fill="#0c080c" stroke-width="none" opacity="1" stroke="none"></path><path id="SvgjsPath4332" d="M146.969 104.885c-46.51-1.001-92.949 0.02-93.95 0.02 -2.675 4.014-4.176 11.498-3.28 15.61 0.934 4.212 4.441 8.009 5.66 16.46 0.07 0.83-0.04 1.71 0.3 2.76 0.35 1.001 2.022 3.206 3.34 3.44 0.129-0.016 0.381-0.046 0.5-0.061 0.523 0.935 1.48 1.218 2.11 0.91 1.516 2.89 3.099-0.453 5.14 1.32 3.383 2.757 3.832 0.049 6.58-0.931 2.146-0.04 5.034 3.43 7.71 0.761 5.499-5.354 8.082 4.5 12.97 1.869 1-0.506 3.922-2.7 5.96-1.42 3.889-2.455 5.717 5.161 11.56-0.05 5.623-5.015 6.653 1.352 10.72 0.51 1.852-0.43 2.478-1.777 4.35-1.67 2.654 1.003 3.25 3.637 6.57 0.931 2.014-1.75 3.577 1.521 5.141-1.32 0.62 0.311 1.589 0.028 2.109-0.91 0.12 0.015 0.38 0.045 0.51 0.061 1.243-0.235 2.975-2.42 3.341-3.44 0.488-1.559-0.315-5.524 3.609-13.46C151.914 118.111 151.265 110.834 146.969 104.885zM147.039 125.775c-5.513 10.228-2.238 14.543-6.01 16.14 -0.05 0-0.09 0.011-0.141 0.03 -0.312-0.07-0.85-0.322-1.14-0.46 -0.006 0.015-0.19 0.59-0.36 1.04 -0.058 0.078-0.041 0.102-0.199 0.26 -0.051 0.021-0.09 0.05-0.13 0.08 -0.37 0.084-0.932-0.389-1.28-0.63 -0.951 2.268-1.016 1.841-1.86 1.57 -2.987-0.938-3.279 0.839-4.62 1.39 -1.356 0.511-2.175-1.354-4.46-2.03 -2.538-0.171-3.387 1.449-4.89 1.75 -2.598 0.548-5.365-5.445-11.05 0.08 -5.063 4.924-6.429-2.163-10.91 0.24 -4.396-2.515-5.807 4.695-10.95-0.3 -5.512-5.221-8.704-0.136-9.84 0.01 -1.911 0.413-2.582-1.3-5.19-1.8 -2.841 0-3.702 2.653-5.31 2.05 -1.344-0.553-1.628-2.329-4.62-1.39 -1 0.32-1.005 0.471-1.86-1.57 -0.344 0.238-0.908 0.715-1.28 0.63 -0.04-0.03-0.08-0.06-0.13-0.08 -0.379-0.509-0.325-0.681-0.56-1.3 0.191-0.098-0.692 0.358-1.14 0.46 -0.04-0.02-0.09-0.03-0.13-0.03 -0.2-0.08-0.47-0.35-0.73-0.67 -1.661-2.134-1.418-1.179-1.63-4.35 -1.82-12.19-11.412-17.353-3.55-31.81 30.144 0.618 62.703 0.696 93.88 0.02C151.487 113.794 150.327 119.547 147.039 125.775z" fill="#000000" stroke-width="none" opacity="1" stroke="none"></path></g></g><g id="svga-group-humanbody-single"><path id="SvgjsPath3288" d="M195.417 199.778c-2.196-4.746-8.195-11.779-14.86-13.722 -8.239-2.403-26.837-5.308-33.733-6.923 -5.528-1.296-16.662-11.294-20.564-14.65 -0.7-0.6-1.273-1.839-1.287-2.76 -0.139-10.864 4.195-39.724 4.195-39.724H100 70.833c0 0 4.334 28.859 4.193 39.724 -0.011 0.921-0.587 2.16-1.285 2.76 -3.902 3.356-15.036 13.354-20.564 14.65 -6.897 1.615-25.495 4.619-33.733 7.022 -6.667 1.942-12.664 8.876-14.86 13.622 -3.708 8.008-4.584 22.5-4.584 35h100 100C200 222.278 199.123 207.786 195.417 199.778z" fill="#f0c7b1" stroke-width="none" opacity="1" stroke="none"></path><path id="SvgjsPath3289" d="M159.156 184.058c24.342 3.542 34.586 8.708 37.794 50.721H200c0-12.5-0.877-26.992-4.583-35 -2.196-4.746-8.195-11.779-14.86-13.722 -8.239-2.403-26.837-5.308-33.733-6.923 -5.528-1.296-18.242-12.069-21.643-16.35 3.36 4.704 12.791 15.605 21.054 18.46C150.188 182.61 153.48 183.232 159.156 184.058zM53.766 181.244c8.263-2.854 17.693-13.756 21.054-18.46 -3.4 4.28-16.114 15.054-21.643 16.35 -6.896 1.615-25.494 4.619-33.733 7.022 -6.665 1.942-12.664 8.876-14.86 13.622 -3.706 8.008-4.583 22.5-4.583 35h3.05c3.188-41.744 13.475-47.183 37.794-50.721C46.52 183.232 49.813 182.61 53.766 181.244z" fill="#ffe4d6" stroke-width="none" opacity="1" stroke="none"></path><path id="SvgjsPath3290" d="M95.646 197.62c0 0-5.074-1.609-7.083-2.379 -10.449-4.009-44.395-6.607-44.395-6.607s35.754 1.419 43.644 2.779c-0.458-4.767-3.017-20.004-3.017-20.004s5.149 16.815 6.409 21.057C91.878 194.734 95.646 197.62 95.646 197.62zM106.445 196.278c-0.089 0.073-0.191 0.168-0.302 0.268C106.256 196.461 106.358 196.372 106.445 196.278zM95.646 197.62c0 0 2.893 2.992 4.347 3.03 1.91 0.051 4.828-2.899 6.151-4.104 -1.265 0.957-4.159 1.391-5.31 1.436C99.504 198.033 95.646 197.62 95.646 197.62zM116.664 190.101c-1.545 0.248-4.386 0.789-4.386 0.789l2.287-14.89c-0.646 3.071-4.474 16.211-8.12 20.278 1.91-1.616 6.158-2.391 8.324-2.704 10.236-1.484 10.232-1.483 41.062-4.94C155.831 188.634 126.76 188.479 116.664 190.101z" fill="#e1ac8f" stroke-width="none" opacity="1" stroke="none"></path><path id="SvgjsPath3291" d="M195.417 199.778c-2.196-4.746-8.195-11.779-14.86-13.722 -8.239-2.403-26.837-5.308-33.733-6.923 -5.528-1.296-16.662-11.294-20.564-14.65 -0.7-0.6-1.273-1.839-1.287-2.76 -0.139-10.864 4.195-39.724 4.195-39.724H100 70.833c0 0 4.334 28.859 4.193 39.724 -0.011 0.921-0.587 2.16-1.285 2.76 -3.902 3.356-15.036 13.354-20.564 14.65 -6.897 1.615-25.495 4.619-33.733 7.022 -6.667 1.942-12.664 8.876-14.86 13.622 -3.708 8.008-4.584 22.5-4.584 35h100 100C200 222.278 199.123 207.786 195.417 199.778z" fill="none" stroke="#c27b55" stroke-width="1.5" opacity="1"></path></g><g id="svga-group-chinshadow-single"><path id="SvgjsPath3522" d="M100.002 170.866c14.133 0 19-4.815 24.219-9.24 -0.068-6.741 1.494-19.936 2.735-29.278 -15.658-2.196-38.256-2.195-53.914 0 1.241 9.342 2.802 22.531 2.733 29.272C80.999 166.047 85.863 170.866 100.002 170.866z" fill="url(#SvgjsLinearGradient3523)" opacity="1"></path></g><g id="svga-group-clothes-single"><path id="SvgjsPath4471" d="M42.77 235.757l1.323-60.852c0 0 10.194-2.487 16.635-6.313 17.496 21.953 69.451 17.333 78.336-0.62 1.489 0.525 2.721 1.197 4.262 1.713 5 3.386 9.213 4.494 9.213 4.494l0.935 61.685C139.188 236.052 42.77 235.757 42.77 235.757z" fill="#f5f4f5" stroke-width="none" opacity="1"></path><path id="SvgjsPath4472" d="M154.014 177.705c-4.236-0.719-7.611-1.697-9.452-3.544 -5.343 10.025-26.763 16.378-33.855 17.309 20.554-6.276 29.188-10.813 32.598-21.583 1.99 2.383 6.522 3.549 12.313 4.538L154.014 177.705zM52.67 174.381c1.454-0.312 2.18-1.234 3.623-1.593l-1.528-1.867c-3.114 2.234-8.971 3.305-15.9 4.424l0.188 3.738c3.956-0.79 7.817-1.788 11.429-3.323 7.483 8.485 19.168 12.659 31.06 14.387C66.624 186.562 58.07 180.511 52.67 174.381z" fill="#ffffff" stroke-width="none" opacity="1"></path><path id="SvgjsPath4473" d="M137.861 170.055c-5.929 11.361-50.74 24.595-76.009 0.866 -1.571 0.615-6.271 2.085-6.271 2.085 18.406 23.08 72.345 23.227 86.702-0.112C142.221 172.87 139.321 170.737 137.861 170.055z" fill="#dfdde2" stroke-width="none" opacity="1"></path><path id="SvgjsPath4474" d="M139.008 167.841c-10.087 18.575-62.578 21.204-78.239 0.625 -5.72 1.556-11.219 4.876-16.756 5.707l-1.243 61.584 110.703 0.107 -0.855-62.386c-3.369-0.707-6.501-2.737-9.254-3.894C141.842 168.945 140.55 168.37 139.008 167.841zM60.39 169.087c13.903 23.086 68.817 18.455 79.419 0.099 1.286 0.499 1.615 0.696 3.106 1.183 -10.982 21.208-65.306 27.967-87.525 1.147C55.546 171.476 58.823 169.629 60.39 169.087zM54.287 172.418c17.963 27.046 77.26 22.856 89.583-1.287 1.771 1.391 4.53 2.989 7.936 3.735l1.66 59.08 -110.377 0.016 1.904-58.299C47.777 174.264 52.247 173.232 54.287 172.418z" fill="#b8b6c9" stroke-width="none" opacity="1"></path><path id="SvgjsPath4475" d="M-4.529 235.566c-2.574-13.852-2.292-47.592 9.013-47.521 13.136-5.311 29.269-11.404 42.802-15.311 6.908-7.246 13.436-14.137 26.188-21.314 0.389 2.599 1.874 8.541 0.011 11.773 -1.355 2.352-5.783 5.576-9.554 8.368 -2.029 2.72-3.927 5.374-6.599 9.089 5.168 22.301 9.601 33.78 10.097 53.123 0 0-1.452 0.689 64.471 0.397 2.215-22.339 4.993-33.561 10.379-54.098 0 0-4.308-5.014-7.207-8.87 -2.054-1.997-8.36-7.532-8.84-8.651 -1.175-2.741-0.548-6.188 0.11-11.367 10.793 4.873 17 12.021 26.082 21.303 7.729 2.119 30.86 9.967 42.445 15.216 3.965-0.11 6.203 1.999 7.872 5.466 5.405 11.195 4.126 27.297 2.18 42.789C185.83 235.989 49.887 238.17-4.529 235.566z" fill="#322c56" stroke-width="none" opacity="1" stroke="none"></path><path id="SvgjsPath4476" d="M73.875 154.081c0.16 1.07 0.304 2.085 0.411 3.041 -0.218 0.266-17.212 23.353-17.336 23.525C61.126 171.148 67.1 161.305 73.875 154.081zM126.053 154.081c-0.159 1.07-0.184 2.085-0.291 3.041 0.218 0.266 16.931 22.469 17.054 22.642C138.391 170.914 132.828 161.305 126.053 154.081zM165.008 185.154c-4.28 6.231-5.194 8.382-9.879 14.557 1.071 0 2.799 0.166 3.87 0.166C162.663 193.592 162.67 190.393 165.008 185.154zM169.394 230.379c3.793-8.9 6.934-16.711 10.739-25.624l-1.247-2.014C175.717 211.896 172.354 221.199 169.394 230.379zM41.048 199.877c1.071 0 2.799-0.166 3.871-0.166 -4.685-6.175-5.599-6.561-9.878-12.792C37.377 192.158 37.384 193.592 41.048 199.877zM21.161 202.741l-1.247 2.014c3.806 8.913 4.765 16.724 8.559 25.624C25.512 221.199 24.33 211.896 21.161 202.741z" fill="#231d47" stroke-width="none" opacity="1" stroke="none"></path><path id="SvgjsPath4477" d="M65.638 169.283c1.181-1.646 5.237-7.272 8.601-12.561C75.227 162.179 73.413 165.416 65.638 169.283zM125.74 156.36c2.553 4.396 5.562 8.772 8.664 12.803C126 165.336 125.435 161.423 125.74 156.36z" fill="#171137" stroke-width="none" opacity="1" stroke="none"></path><path id="SvgjsPath4478" d="M126.318 151.359c0.008-0.061 0.017-0.118 0.023-0.174 18.093 9.999 28.576 25.02 40.747 36.217 -0.448 0.721-1.228 1.193-1.687 1.905C152.656 179.609 146.599 164.946 126.318 151.359zM71.736 152.022c-15.034 8.213-36.242 33.357-38.318 35.269 0.448 0.724 0.691 0.577 1.15 1.288C47.314 178.882 50.793 169.283 71.736 152.022zM194.869 187.704c-1-0.799-24.646-10.039-42.59-14.969 33.698 16.299 45.587 18.545 51.471 24.321C203.367 196.057 202.586 187.489 194.869 187.704zM47.458 172.555c-13.524 3.914-30.839 10.098-42.975 15.491 -5.364 0.106-9.208 7.93-10.031 16.084C1.914 187.317-1.773 198.62 47.458 172.555z" fill="#443e65" stroke-width="none" opacity="1" stroke="none"></path><path id="SvgjsPath4479" d="M206.6 210.062c-0.34-8.635-3.055-23.103-11.691-22.46 -0.714-0.61-20.822-9.767-42.285-15.611 -7.353-7.455-16.515-17.598-26.371-20.957 -0.711 6.428-1.477 10.622 0.216 12.714 2.241 2.439 4.93 4.879 7.568 6.522 4.616 6.136 8.139 9.778 8.139 9.778 -5.43 20.703-8.815 31.314-10.973 53.688H68.798c-2.157-22.373-5.543-32.984-10.973-53.688 0 0 3.522-3.643 8.139-9.778 2.639-1.644 5.327-4.083 7.568-6.522 1.692-2.092 0.927-6.286 0.216-12.714 -9.856 3.359-19.019 13.502-26.371 20.957 -21.463 5.845-41.571 15.001-42.285 15.611 -8.637-0.643-11.352 13.825-11.691 22.46 -0.411 10.487 1.435 24.938 1.585 25.938h210.029C205.165 234.999 207.011 220.549 206.6 210.062zM72.984 163.194c-2.258 2.233-3.658 3.181-6.473 5.282 4.829-6.271 4.341-5.433 7.708-11.229C74.37 159.739 73.433 162.751 72.984 163.194zM-3.172 234.028c-1.082-12.844-2.916-24.41 0.43-36.992 1.281-4.827 2.484-8.095 7.455-8.509 1.067 5.538 8.132 28.724 14.298 44.533 -6.226-24.192-5.311-18.81-8.219-28.452 -0.964-3.235-1.854-6.486-2.979-9.672 -0.783-2.214-1.65-4.387-2.262-6.653l40.433-14.865c-0.279 0.283-12.895 13.434-13.199 13.804 1.847 3.021 7.816 7.222 10.845 11.758 -12.436 1.174-18.508 3.173-23 3.84 0.331 0.919 9.061 25.353 9.976 27.656 -1.479-7.917-4.816-20.297-8.637-27.211 1.41-0.179 18.077-2.492 23.393-3.477 -1.476-2.854-8.043-8.437-11.559-12.619 20.646-18.162 25.422-27.402 39.593-35.454 0.15 1.509 0.443 3.011 0.55 4.519 -15.795 23.533-17.649 23.567-17.649 23.567 4.585 17.81 10.532 35.824 10.532 54.073L-3.172 234.028zM127.016 163.194c-0.448-0.443-1.386-3.455-1.235-5.947 3.367 5.797 2.879 4.958 7.708 11.229C130.674 166.375 129.273 165.428 127.016 163.194zM203.172 234.028l-70-0.154c0-18.249 5.947-36.264 10.532-54.073 0 0-1.854-0.034-17.649-23.567 0.106-1.508 0.399-3.01 0.55-4.519 14.171 8.052 18.946 17.292 39.593 35.454 -3.516 4.183-10.083 9.766-11.559 12.619 5.315 0.984 21.982 3.298 23.393 3.477 -3.82 6.914-7.157 19.294-8.637 27.211 0.915-2.304 9.645-26.737 9.976-27.656 -4.492-0.667-10.564-2.666-23-3.84 3.028-4.536 8.998-8.736 10.845-11.758 -0.305-0.37-12.92-13.521-13.199-13.804 0.001 0 40.433 14.865 40.433 14.865 -0.611 2.267-1.479 4.439-2.262 6.653 -1.125 3.186-2.015 6.437-2.979 9.672 -2.908 9.643-1.993 4.26-8.219 28.452 6.166-15.81 13.23-38.995 14.298-44.533 4.971 0.414 6.174 3.682 7.455 8.509C206.088 209.618 204.254 221.185 203.172 234.028z" fill="#0d0828" stroke-width="none" opacity="1" stroke="none"></path></g><g id="svga-group-head" transform="matrix(1,0,0,1,0,0)"><g id="svga-group-ears-left-move" transform="matrix(1,0,0,1,0,0)"><g id="svga-group-ears-left" transform="matrix(1,0,0,1,0,0)"><path id="SvgjsPath3631" d="M47.001 83.231c-1.376-2.453-5.638-8.48-9.98-7.003 -2.749 0.935-3.293 3.993-3.735 6.693 -0.588 3.591 0.471 10.694 1.389 13.26 0.881 2.467 3.533 7.23 5.264 9.045 2.13 2.225 4.775 9.324 5.194 10.061 0.66 1.162 1.536 2.911 4.122 2.692 2.853-0.244 4.584-1.85 5.856-2.121C58.253 115.192 50.582 89.616 47.001 83.231z" fill="#f0c7b1" stroke="#c27b55" stroke-width="1.5" opacity="1"></path><path id="SvgjsPath3632" d="M44.197 98.104c-0.132-0.581 0.007-1.56 0.142-2.504 0.124-0.861 0.24-1.675 0.169-2.251 -0.267-2.154-1.773-6.249-2.757-8.467 -1.132-2.554-2.963-5.77-5.262-6.599 -0.95-0.343-1.575 0.067-1.938 0.484 -0.266 0.305-0.325 0.665-0.238 0.707 0.086 0.042 0.285-0.254 0.572-0.535 0.235-0.229 0.579-0.426 1.051-0.385 -0.19 1.073-1.167 6.883-0.744 10.845 0.333 3.115 1.593 5.442 1.79 5.791 0.029 0.367 0.077 0.726 0.148 1.075 0.929 4.547 4.971 9.717 6.378 11.409 0.259 0.313 0.531 0.497 0.598 0.423 0.066-0.076-0.094-0.387-0.353-0.7 -1.388-1.679-5.391-6.831-6.289-11.218 -0.952-4.656 2.318-11.556 3.048-13.017 0.371 0.685 0.687 1.344 0.93 1.893 0.19 0.431 0.402 0.936 0.619 1.479 -0.429 0.762-3.434 6.32-2.338 10.767 0.406 1.641 2.235 3.755 3.447 4.333 0.667 0.32 0.919 0.797 1.209 1.349 0.336 0.64 0.718 1.365 1.828 1.892 0.225 0.108 0.429 0.151 0.61 0.151 0.313 0 0.551-0.135 0.725-0.293 0.018 0.28 0.017 0.64 0.009 0.97 -0.012 0.431 0.042 0.783 0.137 0.791 0.094 0.008 0.196-0.332 0.207-0.76 0.016-0.526 0.013-1.177-0.072-1.488 -0.248-0.917-1.008-1.953-1.813-3.048C45.221 100.116 44.403 99.003 44.197 98.104zM36.95 94.073c-2.177-7.139 0.656-13.3 1.144-14.28 0.85 0.822 1.6 1.919 2.21 2.995C39.86 83.646 37.041 89.271 36.95 94.073zM46.341 104.515c-1.004-0.475-1.339-1.115-1.666-1.733 -0.293-0.559-0.598-1.136-1.369-1.505 -0.168-0.081-0.352-0.203-0.542-0.343 -2.486-6.263 0.272-9.001 0.963-9.562 0.211 0.766 0.369 1.468 0.439 2.031 0.063 0.517-0.052 1.339-0.167 2.134 -0.142 0.985-0.286 2.004-0.137 2.664 0.226 0.982 1.069 2.131 1.884 3.242 0.723 0.986 1.466 2.003 1.721 2.832C47.359 104.439 47.017 104.836 46.341 104.515z" fill="#c27b55" stroke-width="none" opacity="1"></path></g></g><g id="svga-group-ears-right-move" transform="matrix(1,0,0,1,0,0)"><g id="svga-group-ears-right" transform="matrix(1,0,0,1,0,0)"><path id="SvgjsPath3633" d="M152.736 83.231c1.377-2.453 5.639-8.48 9.98-7.003 2.75 0.935 3.293 3.993 3.736 6.693 0.588 3.591-0.471 10.694-1.389 13.26 -0.881 2.467-3.533 7.23-5.266 9.045 -2.129 2.225-4.775 9.324-5.193 10.061 -0.658 1.162-1.535 2.911-4.121 2.692 -2.854-0.244-4.584-1.85-5.857-2.121C141.484 115.192 149.156 89.616 152.736 83.231z" fill="#f0c7b1" stroke="#c27b55" stroke-width="1.5" opacity="1"></path><path id="SvgjsPath3634" d="M153.727 101.196c-0.805 1.096-1.564 2.131-1.813 3.048 -0.086 0.311-0.088 0.962-0.072 1.488 0.012 0.428 0.113 0.768 0.207 0.76s0.148-0.36 0.137-0.791c-0.008-0.331-0.008-0.69 0.01-0.97 0.174 0.158 0.412 0.293 0.725 0.293 0.182 0 0.385-0.043 0.609-0.151 1.109-0.526 1.492-1.252 1.828-1.892 0.289-0.552 0.543-1.028 1.209-1.349 1.213-0.578 3.041-2.692 3.447-4.333 1.096-4.447-1.908-10.005-2.338-10.767 0.217-0.544 0.43-1.049 0.619-1.479 0.244-0.549 0.559-1.208 0.93-1.893 0.73 1.46 4 8.361 3.049 13.017 -0.896 4.387-4.9 9.539-6.289 11.218 -0.258 0.313-0.418 0.624-0.352 0.7 0.066 0.074 0.338-0.109 0.598-0.423 1.406-1.692 5.449-6.862 6.379-11.409 0.07-0.35 0.117-0.708 0.146-1.075 0.197-0.349 1.459-2.676 1.791-5.791 0.422-3.961-0.555-9.772-0.744-10.845 0.473-0.042 0.814 0.156 1.051 0.385 0.287 0.281 0.486 0.577 0.572 0.535 0.086-0.042 0.027-0.402-0.238-0.707 -0.363-0.417-0.988-0.827-1.938-0.484 -2.299 0.83-4.131 4.045-5.262 6.599 -0.984 2.218-2.49 6.313-2.758 8.467 -0.072 0.576 0.045 1.39 0.17 2.251 0.135 0.945 0.273 1.924 0.141 2.504C155.336 99.003 154.518 100.116 153.727 101.196zM159.434 82.787c0.611-1.075 1.361-2.173 2.211-2.995 0.488 0.98 3.32 7.141 1.145 14.28C162.697 89.271 159.879 83.646 159.434 82.787zM152.27 104.275c0.254-0.829 0.998-1.846 1.721-2.832 0.816-1.111 1.658-2.26 1.885-3.242 0.148-0.66 0.004-1.679-0.137-2.664 -0.115-0.795-0.23-1.617-0.166-2.134 0.068-0.563 0.227-1.266 0.438-2.031 0.691 0.561 3.449 3.299 0.965 9.562 -0.191 0.14-0.375 0.263-0.543 0.343 -0.771 0.369-1.074 0.946-1.369 1.505 -0.326 0.618-0.662 1.258-1.666 1.733C152.721 104.836 152.379 104.439 152.27 104.275z" fill="#c27b55" stroke-width="none" opacity="1"></path></g></g><g id="svga-group-faceshape-wrap" transform="matrix(1,0,0,1,0,0)"><g id="svga-group-faceshape-single"><path id="SvgjsPath3519" d="M100.002 0.867C66.384 0.921 39.082 28.71 39.134 62.948c0.008 5.438 0.704 10.709 2.002 15.733h0.001c0.012 0.054 11.542 38.834 14.02 51.571 1.382 7.104 9.796 13.505 17.265 18.729 6.967 4.876 10.529 11.885 27.58 11.885s20.613-7.009 27.58-11.885c7.468-5.225 15.883-11.625 17.265-18.729 2.479-12.737 14.009-51.518 14.02-51.571h0.002c1.298-5.023 1.994-10.295 2.002-15.733C160.923 28.71 133.62 0.921 100.002 0.867z" fill="#f0c7b1" stroke-width="none" opacity="1" stroke="none"></path><path id="SvgjsPath3520" d="M146.772 23.236c7.478 10.415 11.917 23.391 11.898 37.461 -0.009 5.438-0.679 10.709-1.93 15.733h-0.002c-0.011 0.054-11.124 38.833-13.512 51.572 -1.335 7.104-9.471 13.505-16.668 18.729 -6.718 4.875-10.121 11.886-26.557 11.886 -16.434 0-19.842-7.011-26.557-11.886 -7.197-5.225-15.335-11.625-16.665-18.729C54.39 115.264 43.277 76.484 43.266 76.43h0c-1.252-5.023-1.922-10.295-1.931-15.733C41.314 46.631 45.75 33.66 53.224 23.247 44.412 34.011 39.111 47.85 39.134 62.948c0.008 5.438 0.704 10.709 2.002 15.733h0.001c0.012 0.054 11.542 38.834 14.02 51.571 1.382 7.104 9.796 13.505 17.265 18.729 6.967 4.876 10.529 11.885 27.58 11.885s20.613-7.009 27.58-11.885c7.468-5.225 15.883-11.625 17.265-18.729 2.479-12.737 14.009-51.518 14.02-51.571h0.002c1.298-5.023 1.994-10.295 2.002-15.733C160.894 47.846 155.589 34.002 146.772 23.236z" fill="#e8b9a0" stroke-width="none" opacity="1" stroke="none"></path><path id="SvgjsPath3521" d="M100.002 0.867C66.384 0.921 39.082 28.71 39.134 62.948c0.008 5.438 0.704 10.709 2.002 15.733h0.001c0.012 0.054 11.542 38.834 14.02 51.571 1.382 7.104 9.796 13.505 17.265 18.729 6.967 4.876 10.529 11.885 27.58 11.885s20.613-7.009 27.58-11.885c7.468-5.225 15.883-11.625 17.265-18.729 2.479-12.737 14.009-51.518 14.02-51.571h0.002c1.298-5.023 1.994-10.295 2.002-15.733C160.923 28.71 133.62 0.921 100.002 0.867z" fill="none" stroke="#c27b55" stroke-width="1.5" opacity="1"></path></g></g><g id="svga-group-mouth-single-move" transform="matrix(1,0,0,1,0,0)"><g id="svga-group-mouth-single" transform="matrix(1,0,0,1,0,0)"><path id="SvgjsPath3590" d="M96.227 139.237l8.297-0.207C103.563 143.5 96.884 142.858 96.227 139.237z" fill="url(#SvgjsLinearGradient3591)" opacity="1"></path><path id="SvgjsPath3594" d="M96.343 139.52c-0.371-0.05-0.315-0.579 0.08-0.542 0.043 0.006 4.308 0.546 7.878-0.215 0.386-0.075 0.5 0.455 0.13 0.534C101.634 139.895 98.015 139.755 96.343 139.52zM100.083 135.95c-1.503 0-2.96-0.521-4.424-0.776 -1.64-0.287-3.274-0.041-4.915 0.104 -1.676 0.149-5.333-0.013-6.365-0.666 -0.578-0.367-0.47-1.221 0.181-1.449 0.614-0.22 1.571 0.236 2.191 0.347 2.872 0.515 4.384-0.034 6.902-0.118 3.851-0.116 4.26 1.501 9.064 0.53 5.165-1.044 7.491-0.254 11.197-1.37 0.508-0.154 1.112-0.56 1.645-0.286 0.615 0.318 0.585 1.185-0.049 1.464 -3.406 1.502-7.174 0.895-10.955 1.526C103.073 135.502 101.596 135.95 100.083 135.95z" fill="#c27b55" stroke-width="none" opacity="1" stroke="none"></path></g></g><g id="svga-group-eyes-left-move" transform="matrix(1,0,0,1,0,0)"><g id="svga-group-eyes-left" transform="matrix(1,0,0,1,0,0)"><g id="svga-group-eyesback-left"><path id="SvgjsPath4195" d="M61.752 82.523c-0.506-2.285 5.191-3.973 12.711-3.051 7.518 0.923 12.738 5.524 12.052 7.844 -0.38 1.286-10.639 3.245-14.253 2.847C68.598 89.758 62.974 88.04 61.752 82.523z" fill="url(#SvgjsRadialGradient4196)" opacity="1"></path></g><g id="svga-group-eyesiriswrapper-left" transform="matrix(1,0,0,1,0.25,0.25)"><g id="svga-group-eyesiriscontrol-left" transform="matrix(1,0,0,1,0,0)"><g id="svga-group-eyesiris-left" transform="matrix(1,0,0,1,0,0)"><path id="SvgjsPath4249" d="M80 84c0 3.313-2.687 5.999-6 5.999S68 87.313 68 84c0-3.316 2.687-6.001 6-6.001S80 80.685 80 84z" fill="#2f3035" stroke-width="none" opacity="1" stroke="none"></path><path id="SvgjsPath4250" d="M70.512 86.805c0.875-0.072 0.1-0.306 0.1-0.306 -0.433-0.233-1.248-0.592-1.248-0.921 0-1.031 1.414-1.299-0.034-1.705 -1.504-1.38 1.167-1.352 1.147-1.398 -0.975-2.376 0.299-1.071 0.835-1.773 1.988-2.599 0.554 0.267 1.633 0 0.391-0.096-0.78-1.531 0.034-1.33 0.539 0.132 0.662 0.58 0.662 0.58 0.393-0.077 1.008-0.682 1.008-0.682 0.749 0.226 1.275 1.29 1.043 1.091 0.368-0.045 0.884-0.221 1.286-0.341 0 0 0.07-0.239 0.139-0.033 0.917 2.661 3.284 2.47 0.559 3.24 0 0-0.176 0 0.382 0.442 2.71 2.164-2.102 1.495 0.451 2.49 0.104-0.104-1.53 0.965-1.53 1.261 0 0.501-1.042 1.818-1.946 1.3 -0.504-0.288-0.581 0.6-0.877 0.19 -0.581-0.803-1.742-0.035-1.313-0.773 0.634-0.521-0.654 0.204-0.904 0.204 -0.828 0 1.083-2.783 3.894-0.715 0.822 0.602-0.864-1.433 0.625-1.433 0.149 0.049 0.104-0.521 0.104-0.682 -0.774-0.151 1.39-0.003 1.39-1.262 0.137 0.027 0.509-0.35-1.635 0 0 0-0.068-0.75-0.034-0.886 0.11-0.438 1.214-0.298 0.904-0.75 0-0.001-0.799-1.604-0.799-1.604 -2.573-0.414-1.102-0.672-2.711-0.341 -0.076 0.378-3.445 1.984-3.338 2.729 0.1 0.702 2.115 0.938 0.208 2.182C73.405 91.051 68.437 85.454 70.512 86.805z" fill="#434444" stroke-width="none" opacity="1" stroke="none"></path><path id="SvgjsPath4251" d="M74 78.749l0.171 4.393 1.837-3.993 -1.523 4.123 3.227-2.985 -2.985 3.226 4.124-1.523 -3.992 1.839 4.392 0.17 -4.392 0.17 3.992 1.839 -4.124-1.523 2.985 3.226 -3.227-2.985 1.523 4.123 -1.837-3.993L74 89.249l-0.171-4.393 -1.838 3.993 1.522-4.123 -3.226 2.985 2.985-3.226 -4.124 1.523 3.992-1.839 -4.39-0.17 4.39-0.17 -3.992-1.839 4.124 1.523 -2.985-3.226 3.226 2.985 -1.522-4.123 1.838 3.993L74 78.749z" fill="#0f1116" stroke-width="none" opacity="1" stroke="none"></path><path id="SvgjsPath4252" d="M74.796 80.067l-0.539 3.315 1.981-2.711 -1.766 2.857 2.87-1.748 -2.725 1.964 3.319-0.515L74.668 84l3.266 0.794 -3.317-0.538 2.712 1.982 -2.858-1.765 1.748 2.869 -1.964-2.725 0.516 3.319 -0.771-3.27 -0.795 3.264 0.539-3.315 -1.984 2.711 1.768-2.857 -2.869 1.748 2.725-1.964 -3.319 0.516 3.269-0.771 -3.264-0.793 3.315 0.537 -2.712-1.982 2.858 1.765 -1.747-2.869 1.964 2.725 -0.516-3.318 0.772 3.27L74.796 80.067z" fill="#040507" stroke-width="none" opacity="1" stroke="none"></path><path id="SvgjsPath4253" d="M76.25 84c0 1.243-1.008 2.25-2.25 2.25s-2.25-1.007-2.25-2.25 1.008-2.25 2.25-2.25S76.25 82.757 76.25 84z" fill="#000000" stroke-width="none" opacity="0.9"></path><path id="SvgjsPath4254" d="M71.637 88.311c-0.331 0.332-0.985 0.215-1.46-0.261 -0.476-0.475-0.593-1.129-0.261-1.461 0.331-0.331 0.985-0.214 1.46 0.261C71.852 87.326 71.969 87.979 71.637 88.311z" fill="#ffffff" stroke-width="none" opacity="0.7"></path><path id="SvgjsPath4255" d="M78.806 82.818c-0.496 0.496-1.697 0.1-2.682-0.886 -0.986-0.986-1.382-2.187-0.886-2.683 0.496-0.496 1.697-0.1 2.682 0.886C78.906 81.122 79.302 82.322 78.806 82.818z" fill="#ffffff" stroke-width="none" opacity="0.9"></path></g></g></g><g id="svga-group-eyesfront-left"><path id="SvgjsPath4217" d="M53.294 83c0.809 10.899 11.637 23.583 20.506 22.236 10.498 0.106 20.864-7.868 20.864-22.305s-5.087-26.528-21.127-26.528C62.037 56.402 53.294 68.563 53.294 83zM61.752 82.523c-0.506-2.285 5.191-3.973 12.711-3.051 7.518 0.923 12.738 5.524 12.052 7.844 -0.38 1.286-10.639 3.245-14.253 2.847C68.598 89.758 62.974 88.04 61.752 82.523z" fill="#f0c7b1" stroke-width="none" opacity="1" stroke="none"></path><path id="SvgjsPath4218" d="M72.262 90.163c3.614 0.398 13.873-1.561 14.253-2.847 0.687-2.32-4.534-6.921-12.052-7.844C68.003 78.68 62.9 79.816 61.907 81.6c0.898-6.4 7.7-11.397 15.987-11.434 8.911-0.037 16.148 5.676 16.172 12.765 0.021 7.088-7.185 12.862-16.095 12.902 -8.913 0.037-16.149-5.676-16.173-12.764 0-0.105 0.016-0.208 0.019-0.313C63.147 88.083 68.651 89.764 72.262 90.163z" fill="url(#SvgjsRadialGradient4219)" opacity="1"></path><path id="SvgjsPath4223" d="M61.752 82.523c-0.506-2.285 5.191-3.973 12.711-3.051 7.518 0.923 12.738 5.524 12.052 7.844 -0.38 1.286-10.639 3.245-14.253 2.847C68.598 89.758 62.974 88.04 61.752 82.523z" fill="url(#SvgjsRadialGradient4224)" opacity="1"></path><path id="SvgjsPath4227" d="M62.148 77.417c4.208-1.978 9.35-2.16 13.838-1.005 2.404 0.561 4.965 1.285 7.063 2.638 1.945 1.135 3.525 2.5 5.002 4.19 -1.342-1.701-2.773-3.118-4.623-4.27 -2.276-1.416-4.769-2.294-7.364-2.916C71.478 74.928 66.342 75.184 62.148 77.417z" fill="#c27b55" stroke-width="none" opacity="1" stroke="none"></path><path id="SvgjsPath4228" d="M62.769 78.02c0.88-0.352 4.065-1 5.456-1.066 1.687-0.082 5.073 0.125 6.735 0.424 3.374 0.608 9.251 2.483 11.678 7.184 0.746 1.445 0.074 2.456-0.123 2.675 0.3-2.426-4.838-6.746-12.052-7.604 -7.52-0.894-13.217 0.743-12.711 2.958 1.222 5.348 6.846 7.013 10.51 7.405 4.099 0.439 11.684-1.539 12.686-1.753 -1.999 1.009-7.524 2.095-9.767 2.303 -0.744 0.07-2.24 0.104-2.986 0.085 -5.949-0.158-10.169-3.175-11.729-7.26C59.464 80.745 60.56 78.902 62.769 78.02z" fill="#575151" stroke-width="none" opacity="1" stroke="none"></path></g></g></g><g id="svga-group-eyes-right-move" transform="matrix(1,0,0,1,0,0)"><g id="svga-group-eyes-right" transform="matrix(1,0,0,1,0,0)"><g id="svga-group-eyesback-right"><path id="SvgjsPath4202" d="M137.849 82.523c0.506-2.285-5.191-3.973-12.711-3.051 -7.518 0.923-12.738 5.524-12.052 7.844 0.38 1.286 10.639 3.245 14.253 2.847C131.003 89.758 136.627 88.04 137.849 82.523z" fill="url(#SvgjsRadialGradient4203)" opacity="1"></path></g><g id="svga-group-eyesiriswrapper-right" transform="matrix(1,0,0,1,-0.25,0.25)"><g id="svga-group-eyesiriscontrol-right" transform="matrix(1,0,0,1,0,0)"><g id="svga-group-eyesiris-right" transform="matrix(1,0,0,1,0,0)"><path id="SvgjsPath4256" d="M132,83.999c0,3.316-2.684,6-6,6s-6-2.684-6-6s2.684-6,6-6S132,80.683,132,83.999z" fill="#2f3035" stroke-width="none" opacity="1" stroke="none"></path><path id="SvgjsPath4257" d="M122.508 86.806c0.879-0.076 0.105-0.305 0.105-0.305 -0.434-0.234-1.254-0.592-1.254-0.926 0-1.031 1.418-1.295-0.023-1.705 -1.512-1.377 1.16-1.348 1.137-1.395 -0.973-2.379 0.305-1.072 0.844-1.775 1.98-2.596 0.551 0.27 1.629 0 0.387-0.094-0.785-1.529 0.035-1.33 0.539 0.135 0.656 0.58 0.656 0.58 0.398-0.076 1.008-0.68 1.008-0.68 0.75 0.223 1.277 1.289 1.043 1.09 0.375-0.047 0.891-0.223 1.289-0.34 0 0 0.07-0.24 0.141-0.035 0.914 2.66 3.281 2.473 0.563 3.24 0 0-0.176 0 0.375 0.439 2.707 2.168-2.098 1.494 0.457 2.49 0.105-0.1-1.535 0.967-1.535 1.266 0 0.498-1.043 1.816-1.945 1.295 -0.504-0.287-0.586 0.604-0.879 0.193 -0.574-0.803-1.746-0.035-1.313-0.773 0.633-0.521-0.656 0.205-0.902 0.205 -0.832 0 1.078-2.783 3.891-0.715 0.82 0.598-0.867-1.436 0.633-1.436 0.141 0.047 0.105-0.521 0.105-0.68 -0.785-0.152 1.383-0.006 1.383-1.266 0.141 0.029 0.516-0.346-1.629 0 0 0-0.07-0.75-0.035-0.885 0.105-0.439 1.207-0.299 0.902-0.75l-0.797-1.605c-2.578-0.41-1.102-0.668-2.719-0.34 -0.07 0.381-3.445 1.986-3.34 2.73 0.105 0.703 2.121 0.938 0.211 2.18C125.402 91.054 120.434 85.452 122.508 86.806z" fill="#434444" stroke-width="none" opacity="1" stroke="none"></path><path id="SvgjsPath4258" d="M126 78.749l0.176 4.395 1.828-3.996 -1.523 4.125 3.234-2.988 -2.988 3.229 4.125-1.523 -3.996 1.84 4.395 0.17 -4.395 0.17 3.996 1.84 -4.125-1.523 2.988 3.229 -3.234-2.988 1.523 4.125 -1.828-3.996L126 89.249l-0.176-4.395 -1.84 3.996 1.523-4.125 -3.223 2.988 2.988-3.229 -4.125 1.523 3.996-1.84 -4.395-0.17 4.395-0.17 -3.996-1.84 4.125 1.523 -2.988-3.229 3.223 2.988 -1.523-4.125 1.84 3.996L126 78.749z" fill="#0f1116" stroke-width="none" opacity="1" stroke="none"></path><path id="SvgjsPath4259" d="M126.797 80.067l-0.539 3.316 1.98-2.713 -1.77 2.859 2.871-1.752 -2.719 1.969 3.316-0.516 -3.27 0.768 3.27 0.797 -3.316-0.539 2.707 1.98 -2.859-1.764 1.746 2.871 -1.957-2.725 0.516 3.316L126 84.667l-0.797 3.264 0.539-3.316 -1.98 2.713 1.77-2.859 -2.871 1.752 2.719-1.969 -3.316 0.516 3.27-0.768 -3.27-0.797 3.316 0.539 -2.707-1.98 2.859 1.764 -1.746-2.871 1.957 2.725 -0.516-3.316 0.773 3.27L126.797 80.067z" fill="#040507" stroke-width="none" opacity="1" stroke="none"></path><path id="SvgjsPath4260" d="M128.25 83.999c0 1.242-1.008 2.25-2.25 2.25s-2.25-1.008-2.25-2.25 1.008-2.25 2.25-2.25S128.25 82.757 128.25 83.999z" fill="#000000" stroke-width="none" opacity="0.9"></path><path id="SvgjsPath4261" d="M123.633 88.312c-0.328 0.328-0.984 0.217-1.453-0.264 -0.48-0.475-0.598-1.125-0.258-1.459 0.328-0.328 0.984-0.211 1.453 0.264C123.855 87.327 123.973 87.978 123.633 88.312z" fill="#ffffff" stroke-width="none" opacity="0.7"></path><path id="SvgjsPath4262" d="M130.805 82.815c-0.492 0.498-1.699 0.105-2.684-0.885 -0.984-0.984-1.383-2.186-0.879-2.678 0.492-0.498 1.688-0.105 2.672 0.885C130.91 81.122 131.297 82.323 130.805 82.815z" fill="#ffffff" stroke-width="none" opacity="0.9"></path></g></g></g><g id="svga-group-eyesfront-right"><path id="SvgjsPath4237" d="M126.063 56.402c-16.04 0-21.127 12.091-21.127 26.528s10.366 22.412 20.864 22.305c8.869 1.347 19.697-11.337 20.506-22.236C146.307 68.563 137.563 56.402 126.063 56.402zM127.339 90.163c-3.614 0.398-13.873-1.561-14.253-2.847 -0.687-2.32 4.534-6.921 12.052-7.844 7.52-0.922 13.217 0.767 12.711 3.051C136.627 88.04 131.003 89.758 127.339 90.163z" fill="#f0c7b1" stroke-width="none" opacity="1" stroke="none"></path><path id="SvgjsPath4238" d="M127.339 90.163c-3.614 0.398-13.873-1.561-14.253-2.847 -0.687-2.32 4.534-6.921 12.052-7.844 6.46-0.792 11.563 0.345 12.556 2.128 -0.898-6.4-7.7-11.397-15.987-11.434 -8.911-0.037-16.148 5.676-16.172 12.765 -0.021 7.088 7.185 12.862 16.095 12.902 8.913 0.037 16.149-5.676 16.173-12.764 0-0.105-0.016-0.208-0.019-0.313C136.453 88.083 130.949 89.764 127.339 90.163z" fill="url(#SvgjsRadialGradient4239)" opacity="1"></path><path id="SvgjsPath4243" d="M137.849 82.523c0.506-2.285-5.191-3.973-12.711-3.051 -7.518 0.923-12.738 5.524-12.052 7.844 0.38 1.286 10.639 3.245 14.253 2.847C131.003 89.758 136.627 88.04 137.849 82.523z" fill="url(#SvgjsRadialGradient4244)" opacity="1"></path><path id="SvgjsPath4247" d="M137.452 77.417c-4.208-1.978-9.35-2.16-13.838-1.005 -2.404 0.561-4.965 1.285-7.063 2.638 -1.945 1.135-3.525 2.5-5.002 4.19 1.342-1.701 2.773-3.118 4.623-4.27 2.276-1.416 4.769-2.294 7.364-2.916C128.123 74.928 133.259 75.184 137.452 77.417z" fill="#c27b55" stroke-width="none" opacity="1" stroke="none"></path><path id="SvgjsPath4248" d="M136.832 78.02c-0.88-0.352-4.065-1-5.456-1.066 -1.687-0.082-5.073 0.125-6.735 0.424 -3.374 0.608-9.251 2.483-11.678 7.184 -0.746 1.445-0.074 2.456 0.123 2.675 -0.3-2.426 4.838-6.746 12.052-7.604 7.52-0.894 13.217 0.743 12.711 2.958 -1.222 5.348-6.846 7.013-10.51 7.405 -4.099 0.439-11.684-1.539-12.686-1.753 1.999 1.009 7.524 2.095 9.767 2.303 0.744 0.07 2.24 0.104 2.986 0.085 5.949-0.158 10.169-3.175 11.729-7.26C140.137 80.745 139.041 78.902 136.832 78.02z" fill="#575151" stroke-width="none" opacity="1" stroke="none"></path></g></g></g><g id="svga-group-facehighlight-single"><path id="SvgjsPath3280" d="M141 113.974c0.035 22.622-18.292 40.994-40.938 41.025 -22.642 0.037-41.028-18.273-41.063-40.9 -0.035-22.62 18.292-41.064 40.937-41.1C122.579 72.964 140.967 91.349 141 113.974z" fill="url(#SvgjsRadialGradient3281)" opacity="1"></path><path id="SvgjsPath3284" d="M137.5 53.999c0 20.711-16.789 37.5-37.499 37.5 -20.711 0-37.501-16.789-37.501-37.5s16.79-37.5 37.501-37.5C120.711 16.499 137.5 33.288 137.5 53.999z" fill="url(#SvgjsRadialGradient3285)" opacity="1"></path></g><g id="svga-group-eyebrows-left-move" transform="matrix(1,0,0,1,0,0)"><g id="svga-group-eyebrows-left-rotate" transform="matrix(1,0,0,1,0,0)"><g id="svga-group-eyebrows-left" transform="matrix(1,0,0,1,0,0)"><path id="SvgjsPath3414" d="M54 74.189c9.954-9.974 16.761-5.915 30.589-3.264 0.845 0.162 6.32 1.539 5.31 3.469 -0.483 0.924-2.036 0.814-2.903 0.798C73.308 74.936 66.652 65.197 54 74.189z" fill="#2a232b" stroke-width="none" opacity="1" stroke="none"></path></g></g></g><g id="svga-group-eyebrows-right-move" transform="matrix(1,0,0,1,0,0)"><g id="svga-group-eyebrows-right-rotate" transform="matrix(1,0,0,1,0,0)"><g id="svga-group-eyebrows-right" transform="matrix(1,0,0,1,0,0)"><path id="SvgjsPath3415" d="M146 74.189c-9.953-9.974-16.761-5.915-30.589-3.264 -0.846 0.162-6.32 1.539-5.311 3.469 0.483 0.924 2.036 0.814 2.903 0.798C126.691 74.936 133.348 65.197 146 74.189z" fill="#2a232b" stroke-width="none" opacity="1" stroke="none"></path></g></g></g><g id="svga-group-nose-single-move" transform="matrix(1,0,0,1,0,0)"><g id="svga-group-nose-single" transform="matrix(1,0,0,1,0,0)"><path id="SvgjsPath3542" d="M91.115 115.499c-0.878 2.064 5.934 4.292 8.519 4.429 2.8 0.147 10.646-2.9 9.316-4.992 -1.399-2.195-6.643-0.286-8.906-0.286C97.792 114.649 92.291 112.745 91.115 115.499z" fill="#e1ac8f" stroke-width="none" opacity="1" stroke="none"></path><path id="SvgjsPath3543" d="M101.857 117.058c-0.23-0.759 1.876-1.584 2.657-1.694 1.101-0.16 3.36 0.802 3.158 1.592 -0.184 0.698-2.148-0.533-2.86-0.429C104.078 116.634 102.075 117.769 101.857 117.058zM94.974 116.811c0.968 0 2.404 0.623 2.668 0.074 0.315-0.655-2.139-1.461-2.86-1.372 -0.596 0.07-2.733 1.315-2.439 1.839C92.617 117.833 93.698 116.811 94.974 116.811z" fill="#c27b55" stroke-width="none" opacity="1" stroke="none"></path><path id="SvgjsPath3544" d="M100.089 111.999c0.607 0 1.742-0.74 1.792-2.23 0.201-6.008-0.956-23.833-1.792-23.77 -0.78 0.059-2.267 17.637-1.948 23.77C98.22 111.271 99.404 111.999 100.089 111.999z" fill="#fff5ef" stroke-width="none" opacity="0.2" stroke="none"></path></g></g><g id="svga-group-beardwrap" transform="matrix(1,0,0,1,0,0)"><g id="svga-group-beard-single-move" transform="matrix(1,0,0,1,0,0)"><g id="svga-group-beard-single" transform="matrix(0.8499995000000001,0,0,0.8499995000000001,15.000048855586996,21.876254904554344)"><path id="SvgjsPath4517" d="M100,18.13L100,18.13L100,18.13L100,18.13z" fill="#2a232b" stroke-width="none" opacity="1"></path></g></g></g><g id="svga-group-mustache-single-move" transform="matrix(1,0,0,1,0,0)"><g id="svga-group-mustache-single" transform="matrix(1,0,0,1,0,0)"><path id="SvgjsPath4524" d="M100 124.48l-2.32 3.2c-0.4 0.56-1.04 0.9-1.73 0.92l-17.27 0.56c-0.23 0.01-0.44-0.14-0.5-0.37s0.03-0.46 0.23-0.58l3.54-2.05c0.45-0.26 0.96-0.42 1.48-0.46L100 124.48zM100 124.48l2.32 3.2c0.4 0.56 1.04 0.9 1.73 0.92l17.27 0.56c0.23 0.01 0.44-0.14 0.5-0.37 0.06-0.22-0.03-0.46-0.23-0.58l-3.54-2.05c-0.45-0.26-0.96-0.42-1.48-0.46L100 124.48z" fill="#171517" stroke-width="none" opacity="1"></path></g></g><g id="svga-group-hair-front" transform="matrix(1,0,0,1,0,0)"><path id="SvgjsPath4334" d="M45.066 90.479c-1.663-4.941-4.339-12.356-8.735-15.286 -2.688-14.785-7.848-34.075 7.836-52.385 3.342-3.917 7.695-7.354 12.827-8.128C69.672-4.083 84.836-12.747 119.576-1.432c52.479 15.34 43.691 53.39 41.853 76.293 -2.476 2.597-4.824 9.932-6.139 14.359 -1.17-25.195-10.647-60.91-38.688-60.91 -14.208 0-17.067 5.674-37.26 3.394C42.051 28.826 48.983 73.242 45.066 90.479z" fill="#2a232b" stroke-width="none" opacity="1" stroke="none"></path><path id="SvgjsPath4335" d="M102.566 19.442C88.011 22.011 80 16 83 5c-5.661 3.59-7.699 9.31-6.903 14.442C72.65 15.482 72.796 8.737 74.843 1c-8.02 8.578-9.465 16.139-7.549 23.801 -5.012-5.458-8.708-12.687-3.697-18.978 -2.321 2.513-4.498 5.343-6.603 8.459 -0.479 0.072-4.142 2.217-4.142 2.217 2.935 0 9.319 2.98 13.005 9.154 -4.542-1.424-10.958 0.219-13.534 2.379 -9.399 7.885-14.204 20.903-7.164 61.423 2.253-11.969 1.543-23.55 3.268-33.198 2.885-16.144 10.068-26.874 30.916-24.951 20.192 2.28 23.052-3.394 37.26-3.394 28.04 0 37.518 35.715 38.688 60.91 1.314-4.427 3.663-11.762 6.139-14.359 0.302-3.759 0.416-3.52 0.79-7.927C153.869 28.485 133.09 14.055 102.566 19.442z" fill="#0c080c" stroke-width="none" opacity="1" stroke="none"></path><path id="SvgjsPath4336" d="M39.369 61.985c-3.731-41.197 18.025-41.045 21-38.75C56.222 22.745 42.114 19.045 39.369 61.985zM86.619 9.485c1.66 4.085 4.553 6.995 10.868 7.394 0 0 1.125 0.776 17.403-2.094 2.292-0.411 3.952-0.545 4.729-0.549C107.662 13.148 93.121 20.9 86.619 9.485zM150.391 26.592c0 0-0.389-0.601-1.072-1.436 -9.444-11.944-25.151-12.229-24.199-11.171 -0.937-1.19 19.347 2.377 26.987 18.344 4.835 8.836 1.414 2.542 5.513 10.656C154.017 31.66 152.175 29.292 150.391 26.592zM130.182 17.505c0 0-1.276-0.383-2.578-0.662 -1.301-0.277-2.615-0.469-2.614-0.469 -3.583-0.505-6.562-0.275-8.37-0.138 6.199 0.063 15.622 1.509 20.75 5.5C135.201 19.539 132.727 18.172 130.182 17.505zM37.369 44.735c-1.341 9.794-1.69 21.234 3.25 29.75C37.33 66.374 37.256 53.492 37.369 44.735zM73.543 28.958c0.823 0.173 1.125 0.078 1.125 0.078s-0.278 0.029-1.063-0.253c-6.856-2.076-9.987-15.147 1.013-27.297C61.436 11.777 64.929 27.814 73.543 28.958zM82.619 5.235C78.885 8.15 76.356 11.463 75.917 16c-0.636 7.067 3.239 12.869 10.953 13.485C74.702 26.658 75.11 13.108 82.619 5.235zM109.42 10.36c0 0-8.481 0.526-16.551-2.875 8.332 4.85 17.038 4.377 27 2.5C115.675 10.167 113.511 10.273 109.42 10.36z" fill="#1b141c" stroke-width="none" opacity="1" stroke="none"></path><path id="SvgjsPath4337" d="M122.869 8.069c-10.39 0.727-12.784 0.221-17.333-2.333C111.313 8.266 113.479 7.609 122.869 8.069zM86.367 16.514c-5.562-5.748-3.748-8.528-3.748-8.528s-2.659 7.062 6.636 11.581c5.177 2.818 14.232 0.009 16.864-0.331C102.686 19.224 91.563 21.687 86.367 16.514zM59.369 25.235c-18.715 0.179-19.006 29.31-16.603 47.764C43.266 55.375 42.898 27.77 59.369 25.235zM160.737 62.366c-2.301-13.429-7.88-28.915-19.618-35.88C150.653 34.103 157.559 51.017 160.737 62.366zM159.619 44.235c-0.742-13.17-7.966-23.253-18.114-30.338C150.438 22.187 157.423 32.042 159.619 44.235zM133.869 8.735c-11.854-6.716-22.503-11.642-36.5-7.5C110.17-0.881 120.844 3.054 133.869 8.735zM82.869-2.015c-10.119 0.956-17.762 5.85-18.528 15.99C65.948 3.828 73.604-0.092 82.869-2.015zM75.254 13.19C77.523 1.846 85.291-0.489 94.426-2.125 84.84-1.67 75.651 1.79 75.254 13.19z" fill="#3a353a" stroke-width="none" opacity="1" stroke="none"></path><path id="SvgjsPath4338" d="M119.669-2.115c-35.293-11.496-50.395-2.204-62.85 16.12 -5.104 0.782-9.536 4.29-12.88 8.21 -15.82 18.468-10.556 38.009-7.88 52.76 4.675 3.016 7.39 11.212 9.05 16.18 4.515-16.777-3.539-62.465 34.2-59.55 20.792 2.347 23.297-3.704 38.46-3.38 25.709-1.096 36.541 36.643 37.29 62.45 1.127-3.874 3.839-13.236 6.659-16.08C163.233 55.411 174.156 13.812 119.669-2.115zM160.739 74.995c-2.396 2.86-4.208 7.944-5.22 11.51 0.247-23.89-10.323-61.938-37.74-61.06 -15.95-0.254-17.956 5.64-38.19 3.59 -18.563-1.35-28.966 9.705-32.23 26.71 -1.966 9.824-0.408 22.838-2.2 33.51 -1.491-4.808-4.014-11.26-8.21-14.08 -1.698-18.831-5.956-33.256 8.28-51.85 3.022-3.928 8.035-7.64 12.89-8.72 6.947-7.295 15.002-29.315 60.86-14.46C167.916 14.516 162.6 50.069 160.739 74.995z" fill="#000000" stroke-width="none" opacity="1" stroke="none"></path></g><g id="svga-group-glasses-single-move" transform="matrix(1,0,0,1,0,0)"><g id="svga-group-glasses-single" transform="matrix(1,0,0,1,0,0)"><path id="SvgjsPath3416" d="M100,18.13L100,18.13L100,18.13L100,18.13z" fill="#26120b" stroke-width="none" opacity="1"></path></g></g></g></g></g><rect id="svga-credit-rect" width="200" height="15" x="0" y="185" fill="#ecf0f1" opacity="0.5" style="display: none;"></rect><text id="svga-credit-text" font-family="Avenir Next, Roboto, Helvetica, Arial, sans-serif" font-size="10px" text-anchor="start" font-weight="400" size="10px" anchor="start" weight="400" fill="#333333" x="33.3125" y="182.609375" style="display: none;"><tspan id="SvgjsTspan3267" dy="13" x="33.3125">Created on AvatarMaker.com</tspan></text></g></svg>